# xmcd
#
# Track frame offsets: 
#        150
#        12124
#        27350
#        42341
#        46894
#        65592
#        67022
#        84325
#        97580
#        107432
#        122635
#        135183
#        141630
#        151445
#        154158
#        163489
#
# Disc length: 2307 seconds
#
# Revision: 0
# Processed by: cddbd v1.5.2PL0 Copyright (c) Steve Scherf et al.
# Submitted via: ExactAudioCopy v0.99pb5
#
DISCID=cf090110
DTITLE=Various  Artist - Quentin  Tarantino' s  Death  Proof
DYEAR=2007
DGENRE=Blues
TTITLE0=Jack  Nitzsche - The  Last  Race
TTITLE1=Smith - Baby  It' s  You
TTITLE2=Ennio  Morricone - Paranoia  Prima
TTITLE3=Eli  Roth  and  michael  Bacall - Planning  and  Sheming
TTITLE4=T-Rex - Jeepster
TTITLE5=Rose  Mc' Gowan  and  Kurt  Russell - Stuntman  Mike
TTITLE6=Pacific  Gas  and  Electric - Staggolee
TTITLE7=Joe  Tex - The  Love  You  Save  ( May  Be  You' r  Own )
TTITLE8=Eddie  Floyd - Good  Love, Bad  Love
TTITLE9=The  Coasters - Down  In  Mexico
TTITLE10=Dave  Dee, Dozy, Beaky, Mick  and  Titch - Hold  Tight
TTITLE11=Pino  Donaggio - Sally  and  Jack
TTITLE12=Willy  De Ville - It' s  So  Easy
TTITLE13=Tracie  Thoms  and  Zoe  Bell - Whatever  However
TTITLE14=Eddie  Beram - Riot  In  Thunder  Alley
TTITLE15=April  March - Chick  Habit
EXTD=
EXTT0=
EXTT1=
EXTT2=
EXTT3=
EXTT4=
EXTT5=
EXTT6=
EXTT7=
EXTT8=
EXTT9=
EXTT10=
EXTT11=
EXTT12=
EXTT13=
EXTT14=
EXTT15=
PLAYORDER=
